<svg width="226" height="35" viewBox="0 0 226 35" fill="none" xmlns="http://www.w3.org/2000/svg">
<path d="M45.4014 27.3973C45.2051 27.3973 45.0925 27.3306 45.0925 27.2002C45.0925 27.1305 45.149 27.0432 45.2609 26.955C46.7881 25.7198 56.8857 17.573 58.4276 16.3063C61.1052 14.1514 61.6672 13.0982 61.6672 11.5677C61.6672 10.6135 61.2212 9.69379 60.5481 9.13247C59.7373 8.44433 58.5254 8.07217 56.5673 8.07217H39.3639V8.34603C39.3639 9.23791 39.5568 10.2064 39.9991 10.8451C40.6938 11.8416 42.0074 12.4172 43.7797 12.4172H55.0719C55.2725 12.4172 55.3803 12.4767 55.3803 12.5793C55.3803 12.6667 55.3322 12.7262 55.2045 12.8215C53.6086 14.1162 44.2851 21.6378 41.9614 23.4945C39.2764 25.6495 38.7422 26.7234 38.7422 28.2504C38.7422 29.1981 39.1918 30.1172 39.8658 30.6755C40.6767 31.3666 41.8911 31.7459 43.8571 31.7459H61.8496V31.5738C61.8496 30.2964 61.4881 29.1981 60.7238 28.5027C59.8468 27.6919 58.7078 27.3973 56.5773 27.3973H45.4014ZM123.59 25.5656C123.534 25.5656 123.489 25.5334 123.439 25.4703C119.873 20.827 113.327 12.2695 111.905 10.4028C110.403 8.44782 109.227 7.80559 107.675 7.80559C106.526 7.80559 105.601 8.22633 104.961 8.90386C104.248 9.66577 103.892 10.8451 103.892 12.1858V27.4954C103.892 29.0254 104.288 30.0719 105.056 30.8368C105.865 31.6513 107.019 32.1043 108.416 32.1043C108.524 32.1043 108.599 32.1043 108.697 32.0934V14.5404C108.697 14.4143 108.753 14.344 108.838 14.344C108.901 14.344 108.939 14.3727 108.988 14.4458C111.081 17.1657 119.016 27.5448 120.536 29.4962C122.04 31.4475 123.207 32.1042 124.752 32.1042C125.908 32.1042 126.836 31.6862 127.47 31.0124C128.179 30.2466 128.544 29.0817 128.544 27.7305V12.417C128.544 10.8872 128.136 9.83769 127.373 9.06202C126.563 8.25486 125.419 7.80543 124.008 7.80543C123.91 7.80543 123.837 7.80543 123.731 7.81289V25.3758C123.731 25.5019 123.671 25.5656 123.59 25.5656ZM84.7857 22.5153V27.4956C84.7857 29.0254 85.1886 30.0721 85.9545 30.837C86.7587 31.6513 87.969 32.1043 89.3981 32.1043C89.5125 32.1043 89.6435 32.1043 89.7595 32.0936V21.4729C89.7595 16.9028 88.5128 13.8279 86.2944 11.4343C84.0098 8.97764 80.5944 7.55676 76.6385 7.55676C69.0501 7.55676 63.791 13.1126 63.791 20.3496C63.791 27.4603 68.6604 32.2053 74.9739 32.2053C79.8433 32.2053 82.768 29.3098 82.768 25.916C82.768 24.6493 82.37 23.2908 81.5029 21.9991C80.8016 25.6495 78.7839 27.6567 75.5327 27.6567C72.0609 27.6567 69.007 25.0243 69.007 20.2269C69.007 15.5097 72.0675 12.2839 76.6518 12.2839C78.948 12.2839 80.795 13.0846 82.1877 14.4567C83.8307 16.0818 84.7857 18.574 84.7857 22.5153ZM99.6724 2.92712C99.6724 1.31262 98.356 0 96.7346 0C95.1164 0 93.8 1.31262 93.8 2.92712C93.8 4.55223 95.1164 5.87198 96.7346 5.87198C98.356 5.87198 99.6724 4.55223 99.6724 2.92712ZM99.2182 32.0936V12.3262C99.2182 10.7856 98.812 9.7432 98.0543 8.97764C97.2435 8.15671 96.0465 7.71442 94.6074 7.71442C94.498 7.71442 94.357 7.71441 94.2526 7.72867V27.4954C94.2526 29.0252 94.6555 30.0719 95.4181 30.8368C96.2189 31.6511 97.4259 32.1042 98.8534 32.1042C98.9662 32.1042 99.1004 32.1043 99.2182 32.0936Z" fill="#3C307F"/>
<path d="M27.453 12.8098C27.453 9.94513 25.2491 7.77727 22.1038 8.0188C15.4304 8.53056 14.5686 16.1218 18.9126 16.607C23.4554 17.1146 25.0813 12.3114 25.1689 12.0412C25.1694 12.0356 25.1728 12.0412 25.1728 12.0412C25.1829 12.3666 25.4245 18.9757 18.6851 18.9757C15.182 18.9757 13.3803 16.1138 13.3803 13.6333C13.3803 9.95656 16.9565 6.30035 22.0032 6.1054C24.8295 5.99565 26.6914 6.6639 28.1504 8.12207C31.1237 11.0949 30.2676 16.6687 27.8615 19.4216C24.0414 23.7901 18.6728 24.9007 13.6706 22.6576C8.66841 20.4151 6.87517 13.9216 9.90724 8.48828C11.0222 6.48967 15.0716 2.03708 22.0304 2.03708C30.8656 2.03708 35.3459 8.29913 34.5365 15.655C33.9169 21.2919 30.4927 25.3738 28.9054 27.0987C21.9315 34.6775 11.6832 36.1881 5.22484 32.2466C1.67086 30.0781 -0.395445 26.184 0.0633107 21.7788C0.456909 24.9609 2.04356 27.7138 4.68352 29.5139C9.96178 33.1133 18.7891 33.6079 25.1685 26.5933C18.7576 31.3814 11.2653 31.3096 6.14965 27.9768C1.45499 24.9194 0.164451 18.8152 2.46304 12.7776C1.30943 18.1599 3.16286 23.1501 7.23446 25.7503C13.5803 29.8035 22.8262 27.4729 28.6522 20.9457C30.6376 18.7212 31.7761 15.721 31.7395 12.9825C31.6778 8.41749 28.496 4.31899 22.072 4.31899C15.4781 4.31899 10.9483 9.4153 10.9483 13.6579C10.9483 18.3671 14.1804 21.0538 18.3968 21.0538C22.5652 21.0538 27.453 18.4243 27.453 12.8098Z" fill="#3C307F"/>
<path d="M166.863 12.8337C167.997 12.8337 168.912 11.9185 168.912 10.7474C168.912 9.57622 167.997 8.66113 166.863 8.66113C165.729 8.66113 164.814 9.57622 164.814 10.7474C164.814 11.9185 165.729 12.8337 166.863 12.8337Z" fill="#3C307F"/>
<path d="M171.582 12.8337C172.679 12.8337 173.594 11.9185 173.594 10.7474C173.594 9.57622 172.679 8.66113 171.582 8.66113C170.484 8.66113 169.494 9.57622 169.494 10.7474C169.494 11.9185 170.447 12.8337 171.582 12.8337Z" fill="#3C307F"/>
<path d="M181.015 19.6787V13.3472C181.015 13.0546 180.831 12.9079 180.539 12.9079H180.136C177.976 12.9079 176.805 13.9691 176.805 16.348V19.6053C176.805 21.2891 176.036 22.3502 174.499 22.3502H163.776C161.725 22.3502 160.335 21.3257 160.335 19.2394C160.335 17.9217 160.884 17.0439 161.396 16.3113C161.506 16.128 161.615 15.872 161.615 15.6527C161.615 15.3969 161.506 15.1401 161.066 15.1401C160.919 15.1401 160.737 15.1768 160.516 15.2502C158.211 16.092 156.711 18.2876 156.711 20.7031C156.711 24.2532 159.566 26.522 163.555 26.522H174.39C178.634 26.522 181.013 23.8505 181.013 19.6779L181.015 19.6787Z" fill="#3C307F"/>
<path d="M190.205 12.9081H189.84C187.643 12.9081 186.508 13.9692 186.508 16.3481V26.193C186.508 28.9745 185.629 30.2923 183.434 30.4015C182.409 30.4382 181.567 30.2548 180.433 29.8523C180.249 29.779 180.03 29.7056 179.811 29.7056C179.408 29.7056 179.189 29.9982 179.261 30.3642C179.408 31.4252 179.957 32.3771 180.761 33.0723C181.714 33.8775 182.921 34.3168 184.276 34.3535C188.522 34.4634 190.681 31.1326 190.681 25.3505V13.3466C190.681 13.054 190.535 12.9081 190.205 12.9081Z" fill="#3C307F"/>
<path d="M219.449 12.2137C215.898 12.2137 214.361 15.2144 212.458 19.167C211.324 21.5826 210.957 22.3511 209.163 22.3511H200.086C198.549 22.3511 197.78 21.29 197.78 19.6063V6.65072C197.78 6.32132 197.634 6.17477 197.304 6.17477H196.938C194.743 6.17477 193.57 7.23592 193.57 9.61481V19.6788C193.57 23.8507 195.913 26.523 200.196 26.523H208.651V26.5597H209.273C210.957 26.5597 212.348 26.2304 213.482 25.3518C215.57 26.4496 217.253 26.8889 219.375 26.8889C223.584 26.8889 226 24.2907 226 19.9722C226 16.9348 224.536 12.2137 219.449 12.2137ZM219.595 22.8271C218.826 22.8637 217.656 22.7536 215.862 21.8752C216.046 21.5459 216.301 21.1066 216.631 20.4115C217.583 18.2158 218.571 16.2029 219.668 16.2029C220.95 16.2029 221.681 17.5207 221.681 19.8996C221.681 22.0225 220.95 22.7544 219.595 22.8271Z" fill="#3C307F"/>
<path d="M143.461 7.59549C143.461 7.13771 143.09 6.7666 142.632 6.7666C142.174 6.7666 141.803 7.13771 141.803 7.59549V30.8042C141.803 31.262 142.174 31.6331 142.632 31.6331C143.09 31.6331 143.461 31.262 143.461 30.8042V7.59549Z" fill="#3C307F"/>
</svg>
